<svg width="24" height="25" viewBox="0 0 24 25" fill="none" xmlns="http://www.w3.org/2000/svg">
<path d="M21.2836 8.81808L15.3328 7.95323L12.6727 2.56026C12.6 2.41261 12.4805 2.29308 12.3328 2.22042C11.9625 2.03761 11.5125 2.18995 11.3273 2.56026L8.66719 7.95323L2.7164 8.81808C2.55234 8.84152 2.40234 8.91886 2.2875 9.03605C2.14866 9.17875 2.07215 9.37074 2.07479 9.56982C2.07743 9.7689 2.15899 9.95879 2.30156 10.0978L6.60703 14.2954L5.58984 20.2228C5.56599 20.3607 5.58125 20.5025 5.63389 20.6321C5.68653 20.7618 5.77444 20.8741 5.88766 20.9563C6.00088 21.0385 6.13487 21.0874 6.27445 21.0974C6.41403 21.1073 6.5536 21.078 6.67734 21.0126L12 18.2142L17.3227 21.0126C17.468 21.09 17.6367 21.1157 17.7984 21.0876C18.2063 21.0173 18.4805 20.6306 18.4102 20.2228L17.393 14.2954L21.6984 10.0978C21.8156 9.98292 21.893 9.83292 21.9164 9.66886C21.9797 9.2587 21.6938 8.87902 21.2836 8.81808Z" fill="#FFCB45"/>
</svg>
